<svg width="24" height="24" viewBox="0 0 24 24" fill="none" xmlns="http://www.w3.org/2000/svg">
<path d="M16.5 14H16.51M3 5C3 3.89543 3.89543 3 5 3H17M3 5C3 6.10457 3.89543 7 5 7L19 7C20.1046 7 21 7.89543 21 9V19C21 20.1046 20.1046 21 19 21H14M3 5V10.5M17 14C17 14.2761 16.7761 14.5 16.5 14.5C16.2239 14.5 16 14.2761 16 14C16 13.7239 16.2239 13.5 16.5 13.5C16.7761 13.5 17 13.7239 17 14Z" stroke="black" stroke-width="2" stroke-linecap="round" stroke-linejoin="round"/>
<g clip-path="url(#clip0_6081_433566)">
<path d="M3.66663 16.5832C4.66119 16.5832 5.61501 16.9783 6.31828 17.6815C7.02154 18.3848 7.41663 19.3386 7.41663 20.3332M3.66663 13.6665C5.43474 13.6665 7.13043 14.3689 8.38067 15.6191C9.63091 16.8694 10.3333 18.5651 10.3333 20.3332M4.49996 19.9165C4.49996 20.1466 4.31341 20.3332 4.08329 20.3332C3.85317 20.3332 3.66663 20.1466 3.66663 19.9165C3.66663 19.6864 3.85317 19.4998 4.08329 19.4998C4.31341 19.4998 4.49996 19.6864 4.49996 19.9165Z" stroke="black" stroke-width="2" stroke-linecap="round" stroke-linejoin="round"/>
<path d="M3.53845 19.3076L4.6923 20.4615" stroke="black" stroke-width="2"/>
</g>
<defs>
<clipPath id="clip0_6081_433566">
<rect width="10" height="10" fill="white" transform="translate(2 12)"/>
</clipPath>
</defs>
</svg>
