<svg width="328" height="31" viewBox="0 0 328 31" fill="none" xmlns="http://www.w3.org/2000/svg">
<path fill-rule="evenodd" clip-rule="evenodd" d="M328 0.405151H0V30.4052H9.54313C9.9434 26.2954 13.6052 23.077 18.0634 23.077C22.5215 23.077 26.1833 26.2954 26.5836 30.4052H34.2629C34.6631 26.2954 38.3249 23.077 42.7831 23.077C47.2412 23.077 50.903 26.2954 51.3033 30.4052H58.9811C59.3814 26.2954 63.0432 23.077 67.5013 23.077C71.9595 23.077 75.6213 26.2954 76.0216 30.4052H83.6999C84.1001 26.2954 87.762 23.077 92.2201 23.077C96.6782 23.077 100.34 26.2954 100.74 30.4052H108.419C108.819 26.2954 112.481 23.077 116.939 23.077C121.397 23.077 125.059 26.2954 125.46 30.4052H133.137C133.538 26.2954 137.199 23.077 141.658 23.077C146.116 23.077 149.778 26.2954 150.178 30.4052H157.857C158.257 26.2954 161.919 23.077 166.377 23.077C170.835 23.077 174.497 26.2954 174.897 30.4052H182.576C182.976 26.2954 186.638 23.077 191.096 23.077C195.554 23.077 199.216 26.2954 199.616 30.4052H207.294C207.694 26.2954 211.356 23.077 215.814 23.077C220.272 23.077 223.934 26.2954 224.335 30.4052H232.013C232.413 26.2954 236.075 23.077 240.533 23.077C244.991 23.077 248.653 26.2954 249.053 30.4052H256.732C257.132 26.2954 260.794 23.077 265.252 23.077C269.71 23.077 273.372 26.2954 273.773 30.4052H281.45C281.851 26.2954 285.512 23.077 289.971 23.077C294.429 23.077 298.091 26.2954 298.491 30.4052H306.17C306.57 26.2954 310.232 23.077 314.69 23.077C319.148 23.077 322.81 26.2954 323.21 30.4052H328V0.405151Z" fill="white"/>
</svg>
