<svg width="150" height="150" viewBox="0 0 150 150" fill="none" xmlns="http://www.w3.org/2000/svg">
<path d="M96.9322 75.262C96.9322 96.086 96.8704 116.907 96.9847 137.728C97.0094 141.807 95.5167 144.867 92.3582 147.179C90.9643 148.199 89.2306 148.409 87.4937 148.409C76.17 148.393 64.8463 148.403 53.5195 148.403C44.7238 148.403 35.9189 148.217 27.1325 148.474C21.857 148.625 17.1655 143.529 17.4653 138.992C17.4962 138.507 17.4591 138.018 17.4591 137.533C17.4591 95.9377 17.4715 54.3422 17.4282 12.7467C17.4282 10.3392 17.7836 8.07693 19.0724 6.08354C20.7722 3.44732 23.3373 2.16784 26.4526 2.13693C31.2151 2.09057 35.9776 2.12457 40.7401 2.12457C56.1928 2.12457 71.6516 2.12457 87.1043 2.11839C88.3281 2.11839 89.5272 2.19874 90.6986 2.5727C94.3268 3.73783 96.3233 6.74491 96.8611 10.4628C96.9723 11.2262 96.926 12.0174 96.926 12.7931V75.2589V75.2528L96.9322 75.262Z" fill="#009BDF"/>
<path d="M91.1005 75.8368C91.1005 89.3146 91.082 102.792 91.1314 116.27C91.1314 117.46 90.8873 117.781 89.6542 117.781C68.0266 117.738 46.396 117.738 24.7654 117.781C23.557 117.781 23.2695 117.506 23.2695 116.289C23.3066 89.2837 23.3066 62.2817 23.2757 35.2797C23.2757 34.1795 23.492 33.8271 24.6788 33.8271C46.3589 33.8673 68.0328 33.8642 89.7129 33.8271C90.8688 33.8271 91.1345 34.1331 91.1284 35.2612C91.0882 48.7853 91.1005 62.3126 91.1005 75.8368Z" fill="#FFE600"/>
<path d="M57.0799 27.7203C46.2878 27.7203 35.4987 27.6986 24.7066 27.7481C23.5414 27.7543 23.2571 27.4298 23.2726 26.2955C23.3375 21.5763 23.2942 16.854 23.3035 12.1347C23.3096 9.36251 24.4284 8.2561 27.2099 8.2561H87.1477C90.0095 8.2561 91.0974 9.35015 91.1036 12.2336C91.1128 16.9529 91.0665 21.6752 91.1345 26.3944C91.153 27.5163 90.8192 27.7512 89.7499 27.7481C78.862 27.7079 67.974 27.7234 57.0861 27.7234L57.0799 27.7203Z" fill="#FFE600"/>
<path d="M57.2768 123.879C68.1122 123.879 78.9538 123.897 89.7892 123.848C90.8925 123.842 91.1459 124.117 91.1305 125.199C91.0594 129.43 91.1058 133.664 91.0996 137.894C91.0934 141.238 90.0766 142.268 86.7914 142.268H27.4501C24.4182 142.268 23.3118 141.195 23.2995 138.179C23.2809 133.849 23.3366 129.516 23.2655 125.192C23.2469 124.089 23.5344 123.842 24.616 123.848C35.5009 123.891 46.3888 123.876 57.2737 123.876L57.2768 123.879Z" fill="#001870"/>
<path d="M51.5937 17.8122C51.6308 19.9138 50.1566 21.558 48.2034 21.592C46.2563 21.6229 44.7543 20.0343 44.7172 17.908C44.6863 16.0723 46.2594 14.4559 48.1045 14.425C49.9433 14.3941 51.5566 15.961 51.5906 17.8122H51.5937Z" fill="#001870"/>
<path d="M60.6337 17.8738C60.6275 19.9908 59.1317 21.601 57.1846 21.5917C55.2314 21.5824 53.748 19.9599 53.7603 17.846C53.7696 16.0009 55.3705 14.4155 57.2094 14.4216C59.0544 14.4309 60.6399 16.0225 60.6337 17.8707V17.8738Z" fill="#001870"/>
<path d="M66.2185 14.4251C68.0605 14.4128 69.6613 15.9951 69.6737 17.8402C69.6922 19.9541 68.2088 21.5766 66.2556 21.589C64.3055 21.6044 62.8096 19.9974 62.8004 17.8772C62.788 16.0384 64.3734 14.4344 66.2185 14.4251Z" fill="#001870"/>
<path d="M57.3449 129.998C59.3352 129.998 61.3224 129.98 63.3127 130.004C65.2721 130.029 66.5639 131.241 66.5207 132.984C66.4774 134.943 65.3185 136.111 63.3065 136.124C59.2332 136.148 55.1599 136.148 51.0866 136.124C49.0808 136.111 47.9157 134.931 47.8786 132.974C47.8446 131.231 49.1303 130.023 51.0958 130.004C53.1789 129.98 55.265 129.998 57.3542 129.998H57.348H57.3449Z" fill="#FFE600"/>
<path d="M38.1559 64.9552C39.3767 63.7283 40.5943 62.4982 41.8151 61.2713C42.8473 60.236 43.8827 59.2006 44.918 58.1684C45.5639 57.5256 46.2191 57.5194 46.8589 58.156C47.307 58.6011 47.7551 59.0461 48.2002 59.4973C48.7688 60.0752 48.7688 60.7521 48.2002 61.3331C47.7366 61.8059 47.2606 62.2695 46.7291 62.798H47.2081C54.0783 62.798 60.9455 62.7949 67.8158 62.798C71.8582 62.798 75.165 65.4466 76.0644 69.387C76.1942 69.9557 76.256 70.5336 76.2498 71.1208C76.2375 72.1283 75.471 72.8979 74.4542 72.9164C74.0834 72.9226 73.7094 72.9195 73.3385 72.9164C72.2661 72.9071 71.5213 72.1747 71.4873 71.1023C71.4317 69.4426 70.4149 68.1292 68.8418 67.6872C68.5297 67.6007 68.2113 67.5605 67.8868 67.5605C60.9301 67.5605 53.9764 67.5605 47.0196 67.5605C46.9516 67.5605 46.8805 67.5605 46.7321 67.5605C47.2421 68.0674 47.6933 68.5186 48.1445 68.9698C48.7812 69.6095 48.7812 70.2709 48.1445 70.9107C47.6995 71.3588 47.2544 71.81 46.8032 72.2519C46.2253 72.8175 45.5454 72.8144 44.9705 72.2396C42.7948 70.0669 40.6222 67.8912 38.4464 65.7186C38.3444 65.6166 38.2517 65.5084 38.1528 65.4033C38.1528 65.255 38.1528 65.1066 38.1528 64.9583L38.1559 64.9552Z" fill="#001870"/>
<path d="M38.1566 79.0942C38.41 78.4297 38.7901 77.8765 39.538 77.7405C40.1963 77.6231 40.8762 77.6138 41.5314 77.7405C42.3412 77.8981 42.8758 78.5842 42.916 79.4094C43.0211 81.6191 44.4922 83.0377 46.6926 83.0377C53.5474 83.0377 60.4053 83.0377 67.2601 83.0377H67.7052C67.1798 82.5247 66.7224 82.0858 66.2742 81.6377C65.616 80.9794 65.616 80.3335 66.2742 79.6721C66.7224 79.224 67.1643 78.7728 67.6155 78.3308C68.1626 77.7931 68.8548 77.7807 69.3957 78.3154C71.5992 80.5096 73.7997 82.7132 75.9971 84.9167C76.3463 85.266 76.3494 85.5657 76.0001 85.915C73.8028 88.1185 71.6023 90.319 69.3988 92.5164C68.8579 93.0541 68.1656 93.0448 67.6186 92.5071C67.1396 92.0373 66.6667 91.5645 66.197 91.0885C65.6407 90.526 65.6376 89.843 66.1877 89.2837C66.6575 88.8077 67.1365 88.341 67.6248 87.8527C67.4857 87.76 67.3497 87.8033 67.223 87.8033C60.3311 87.8033 53.4362 87.8033 46.5443 87.8002C42.6688 87.7971 39.3897 85.2567 38.4069 81.5326C38.3111 81.1679 38.3142 80.7816 38.1504 80.4355V79.0973L38.1566 79.0942Z" fill="#001870"/>
<path d="M112.972 86.8671C113.633 86.6322 114.128 86.0697 114.835 85.9214C116.362 85.7885 117.428 86.4344 118.356 87.6645C121.205 91.4411 124.234 95.0848 126.935 98.9758C127.908 100.849 128.737 102.78 129.324 104.811C129.519 106.155 129.716 107.5 129.911 108.844C129.855 110.148 129.803 111.449 129.747 112.753C129.497 113.931 129.244 115.111 128.993 116.289C128.604 117.278 128.214 118.267 127.828 119.253C127.337 120.124 126.848 120.996 126.357 121.864C125.856 122.547 125.359 123.227 124.861 123.91C124.064 124.72 123.263 125.53 122.469 126.339C121.468 127.078 120.466 127.82 119.462 128.561C118.479 129.062 117.496 129.56 116.514 130.06C115.392 130.419 114.273 130.777 113.151 131.136C110.941 131.572 108.707 131.68 106.46 131.59C105.904 131.525 105.344 131.46 104.785 131.396C103.002 131.049 101.274 130.524 99.5744 129.89C95.8256 128.12 92.6516 125.65 90.241 122.248C88.7792 120.724 87.5492 119.015 86.2975 117.318C85.9792 116.885 85.837 116.376 85.7597 115.844C85.701 115.155 85.8555 114.515 86.1739 113.909C86.7982 113.01 87.6759 112.379 88.5103 111.703C89.4282 111.125 90.2534 110.423 91.0971 109.753C92.117 109.035 92.2622 109.063 93.0441 110.062C94.6265 112.086 96.1625 114.144 97.7572 116.162C98.1651 116.675 98.6596 116.941 99.2963 116.706C99.9422 116.468 100.149 115.943 100.047 115.281C99.6888 114.218 98.8512 113.483 98.196 112.63C96.6353 110.584 95.087 108.535 93.483 106.52C90.4573 102.576 87.4255 98.6359 84.3535 94.7325C83.5098 93.521 82.5827 92.3713 81.6679 91.2155C80.8674 90.2049 80.4502 89.0954 80.4502 87.8159C80.5275 86.6415 81.0281 85.6494 81.7637 84.7563C82.4621 84.1938 83.207 83.7271 84.0939 83.5108C86.4057 83.1708 88.0313 84.1351 89.4066 85.9801C91.9593 89.4075 94.6017 92.7731 97.2287 96.148C98.3073 97.5325 98.9254 97.6098 100.307 96.5034C100.984 95.9594 101.682 95.4433 102.374 94.9241C103.496 94.031 104.665 93.1996 105.774 92.291C106.673 91.7903 107.264 90.8292 108.321 90.5634C109.14 90.0442 109.875 89.4261 110.555 88.74C111.55 88.3629 112.175 87.5068 112.975 86.8764V86.8671H112.972Z" fill="#FFE600"/>
<path d="M107.894 133.75C104.834 133.682 101.756 133.061 98.7983 131.964L98.6252 131.89C93.0375 129.251 88.5841 124.522 85.1258 119.466C83.7072 117.389 82.9717 115.25 84.2172 112.883L84.279 112.766L84.3562 112.654C84.7951 112.021 90.7536 106.6 91.2234 107.212C88.5934 103.785 85.5955 99.8874 82.6163 96.1046L82.539 95.9995C81.8344 94.9889 81.0741 94.0278 80.2644 93.011L79.9306 92.5907C78.8056 91.169 78.2339 89.565 78.2339 87.8189L78.2401 87.6736C78.3328 84.8303 80.3973 82.4043 83.0706 81.5667C86.2476 80.5716 89.2702 82.1014 91.177 84.6634C93.3219 87.5469 95.5779 90.4396 97.7568 93.2366L98.9435 94.7602C99.4937 94.3183 100.056 93.8979 100.6 93.49L101.017 93.1779C103.344 91.3266 105.712 89.5248 108.101 87.754C110.131 86.2489 112.492 83.761 115.184 83.7486C117.162 83.7394 118.945 84.7809 120.12 86.3385C121.118 87.6613 122.16 88.9964 123.17 90.2913C125.915 93.8052 128.943 97.2419 130.529 101.464C134.321 111.582 130.566 123.508 121.711 129.68C117.527 132.595 112.737 133.862 107.894 133.753V133.75ZM106.627 129.383C108.821 129.467 110.777 129.337 112.594 128.991L115.663 128.008L118.29 126.673L121.007 124.664L121.096 124.571C121.786 123.873 122.475 123.171 123.164 122.473C123.603 121.87 124.045 121.268 124.487 120.665L125.819 118.301C126.165 117.417 126.514 116.53 126.863 115.646L127.54 112.472L127.685 108.955L127.151 105.28C126.663 103.627 125.967 101.936 125.031 100.119C123.343 97.6993 121.483 95.3165 119.681 93.011C118.661 91.7037 117.604 90.3531 116.581 88.9964C116.223 88.5204 115.716 88.1372 115.088 88.2948C114.681 88.3968 114.337 88.6626 114.007 88.9222C111.12 91.1814 108.138 93.2891 105.224 95.5112C104.707 95.9006 104.222 96.2715 103.74 96.6547L103.694 96.6887L103.246 97.0256C102.699 97.4366 102.182 97.8229 101.679 98.2278C100.81 98.9262 99.7378 99.6154 98.3842 99.4578C97.0336 99.3002 96.1528 98.3854 95.4729 97.5077L94.2614 95.9532C92.0671 93.1377 89.7956 90.2233 87.6198 87.3028C86.498 85.7946 85.5894 85.5504 84.5108 85.6864C84.1461 85.7915 83.769 85.9955 83.3209 86.3354C82.913 86.8732 82.6997 87.3738 82.6503 87.893C82.6657 88.6131 82.8944 89.2189 83.3889 89.8432L83.7196 90.2573C84.52 91.2679 85.3483 92.3125 86.1209 93.4158C89.2887 97.4428 92.4751 101.587 95.2164 105.16C96.5484 106.835 97.8619 108.553 99.129 110.216L99.948 111.288C100.087 111.471 100.257 111.665 100.433 111.872C101.014 112.552 101.74 113.396 102.136 114.577L102.198 114.759L102.226 114.948C102.491 116.691 101.642 118.196 100.056 118.78C98.5789 119.327 97.0676 118.863 96.0168 117.537C95.1175 116.4 94.2305 115.241 93.3744 114.122C92.849 113.439 92.3113 112.735 91.7735 112.039C91.1554 112.534 90.5126 113.038 89.7987 113.498C89.6998 113.578 89.6009 113.656 89.5051 113.733C88.924 114.197 88.4141 114.605 88.068 115.053C87.9629 115.291 87.9474 115.467 87.9536 115.597C88 115.893 88.0618 115.989 88.0741 116.005C91.3037 120.39 95.0711 125.866 100.427 127.844C102.118 128.469 103.654 128.914 105.118 129.201L106.624 129.377L106.627 129.383Z" fill="#009BDF"/>
</svg>
