<?xml version="1.0" encoding="UTF-8"?>
<svg id="Layer_2" data-name="Layer 2" xmlns="http://www.w3.org/2000/svg" viewBox="0 0 512 512">
  <defs>
    <style>
      .cls-1 {
        fill: none;
      }

      .cls-1, .cls-2, .cls-3, .cls-4 {
        stroke-width: 0px;
      }

      .cls-2 {
        fill: #009bdf;
      }

      .cls-3 {
        fill: #ffe600;
      }

      .cls-4 {
        fill: #001870;
      }
    </style>
  </defs>
  <g id="Layer_1-2" data-name="Layer 1">
    <g>
      <g>
        <path class="cls-2" d="M296.06,7.98c3.58.47,7.1,1.29,10.43,2.76,10.82,4.8,18.85,14.57,22.28,25.82,1.28,4.2,1.93,8.59,1.95,12.98.14,24.31.12,48.62-.05,72.94-.03,4.29,1.05,7.59,3.77,10.97,25.02,31.01,49.84,62.18,74.77,93.27,13.98,17.44,21.04,37.21,21.02,59.63-.08,69.21-.03,138.42-.03,207.63,0,8.41-2.6,11-11,11.01-42.14,0-84.28.09-126.42-.02-47.45-.13-86.59-33.75-93.91-80.59-1.61-10.29-1.18-20.7-.97-31.07.07-3.54-.71-4.61-4.46-4.58-22.69.2-45.38.18-68.07.08-22.44-.1-39.06-13.42-42.98-34.45-.62-3.31-.59-6.77-.59-10.16-.03-97.57-.03-195.14-.02-292.72,0-9.74,2.13-19.68,7.98-27.64,13.46-18.32,37.45-17.1,57.69-17.04l80.06.22c18.8,0,37.68-.45,56.46.21,4,.14,8.09.25,12.09.78Z"/>
        <path class="cls-3" d="M331.61,156.37c12.97,16.19,26.01,32.42,39.02,48.69,9.3,11.64,18.71,23.19,27.79,35,10.09,13.11,15.14,28.11,15.16,44.66.06,66.61,0,133.21.11,199.82,0,3.25-.94,3.95-4.04,3.94-39.06-.1-78.11.05-117.17-.1-42.95-.16-76.96-33.7-78.03-76.73-.16-6.32.09-12.64-.11-18.96-.09-2.87.63-3.96,3.73-3.93,15.56.15,31.12.2,46.67-.03,3.62-.05,4.05,1.96,4.92,4.5,10.69,31.38,31.15,53.92,61.3,67.77,3.96,1.82,5.96,1.5,7.02-3.03.8-3.42,3.72-6.97,3.11-9.92-.6-2.89-5.52-3.11-8.44-4.71-33.56-18.44-50.9-46.71-51.67-85.03-.16-8.1-.15-16.21.03-24.31.09-4.29-1.17-7.72-3.99-11.03-23.55-27.61-46.94-55.35-70.44-83-5.84-6.86-7.92-14.49-4.74-22.99,3.1-8.3,9.38-13.07,18.19-14.08,7.64-.87,13.83,2.2,19.02,7.73,21.4,22.8,42.86,45.56,64.29,68.33,14.55,15.46,29.16,30.86,43.57,46.44,2.27,2.45,3.56,2.31,5.53,0,2.69-3.15,8.25-5.33,8.12-8.91-.11-3.09-4.85-6.03-7.61-8.98-6.64-7.1-13.3-14.19-19.99-21.24-1.39-1.46-2.25-2.91-2.24-5.09.06-41,.05-82,.06-123,0-.57-.27-1.31.84-1.8Z"/>
        <path class="cls-4" d="M98.36,197.54c0-48.77,0-97.54,0-146.31,0-17.67,9.99-27.64,27.68-27.65,30.78,0,61.57.06,92.35-.09,3.58-.02,4.55.78,4.54,4.48-.14,51.36-.12,102.72-.03,154.08,0,2.96-.57,3.93-3.83,4.25-15.51,1.54-26.72,9.62-32.51,24.06-5.73,14.29-3.06,27.68,6.74,39.5,8.99,10.84,18.17,21.54,27.33,32.25,1.55,1.81,2.28,3.62,2.27,6.08-.09,26.57-.12,53.14.02,79.71.02,3.34-.79,4.34-4.24,4.32-31.27-.14-62.54-.02-93.81-.11-16.44-.05-26.5-10.31-26.51-26.82-.02-49.25,0-98.51,0-147.76Z"/>
        <path class="cls-4" d="M281.3,23.56c3.72.08,7.49-.21,11.16.3,12.19,1.68,20.81,11.29,21.64,23.79.12,1.77.06,3.56.06,5.34,0,69,0,137.99,0,206.99,0,1.61,0,3.21,0,6.06-11.39-11.92-22.12-23.15-32.85-34.37-.93-1.5-.49-3.16-.49-4.74-.02-66.21-.03-132.41,0-198.62,0-1.58-.46-3.24.48-4.74Z"/>
        <path class="cls-4" d="M264.59,24.56c-.09,1.77-.27,3.54-.27,5.31-.01,58.95-.01,117.91-.01,176.86v6.59c-3.37-3.58-5.84-6.22-8.31-8.85-3.77-4.01-7.1-8.64-11.94-11.3-4.04-2.22-4.75-5.03-4.73-9.28.15-51.83.16-103.65,0-155.48-.01-4.14,1.08-5.14,5.05-4.92,6.46.35,12.95.07,19.43.05.39.25.65.59.8,1.02Z"/>
        <path class="cls-4" d="M239.42,304.36c8.07,9.53,15.24,18.09,22.54,26.54,1.69,1.96,2.42,3.93,2.42,6.54,0,10.52.17,21.04.4,31.56.05,2.07-.02,3.28-2.66,3.21-6.63-.17-13.27-.12-19.91-.02-2,.03-2.83-.44-2.82-2.65.07-21.32.04-42.64.04-65.18Z"/>
        <path class="cls-3" d="M156.41,280.95c7.61,0,15.22-.04,22.83.01,7.44.05,10.4,2.9,10.43,10.18.05,15.38.07,30.76,0,46.14-.03,6.97-3.16,10.01-10.19,10.04-15.38.05-30.76.05-46.14,0-7.02-.02-10.09-2.99-10.12-10.04-.08-15.54-.09-31.08,0-46.62.04-6.81,3.01-9.62,9.89-9.69,7.77-.08,15.54-.02,23.31-.02Z"/>
        <path class="cls-3" d="M123.16,102.45c0-16.51.08-33.03-.07-49.54-.03-3.25.65-4.77,4.21-4.37,3.99.45,9.21-1.65,11.73.78,2.54,2.46.76,7.69.77,11.7.07,30.28-.01,60.55.11,90.83.01,3.45-.6,4.77-4.45,4.73-12.29-.15-12.3.03-12.3-12.35,0-13.92,0-27.85,0-41.77Z"/>
        <path class="cls-3" d="M181.22,81.72c0,9.71-.18,19.42.09,29.12.1,3.53-1,4.52-4.32,4.13-3.97-.47-9.2,1.7-11.64-.84-2.4-2.51-.66-7.69-.68-11.69-.08-16.5.05-33.01-.1-49.52-.03-3.18.43-4.78,4.1-4.41,3.98.4,9.23-1.23,11.71.77,2.64,2.14.72,7.57.8,11.56.15,6.95.04,13.92.04,20.87Z"/>
        <path class="cls-4" d="M155.89,330.76c-4.21,0-8.43-.1-12.63.04-2.34.08-3.53-.36-3.48-3.12.15-9.07.13-18.14,0-27.21-.03-2.43.88-2.96,3.1-2.94,9.07.1,18.14.11,27.21,0,2.36-.03,3.05.77,3.03,3.09-.11,9.07-.11,18.14,0,27.21.03,2.42-.89,3.04-3.14,2.97-4.69-.13-9.39-.04-14.09-.04Z"/>
      </g>
      <rect class="cls-1" width="512" height="512"/>
    </g>
  </g>
</svg>