<?xml version="1.0" encoding="UTF-8"?>
<svg id="Layer_2" data-name="Layer 2" xmlns="http://www.w3.org/2000/svg" viewBox="0 0 512 512">
  <defs>
    <style>
      .cls-1 {
        fill: none;
      }

      .cls-1, .cls-2, .cls-3, .cls-4, .cls-5 {
        stroke-width: 0px;
      }

      .cls-2 {
        fill: #cecece;
      }

      .cls-3 {
        fill: #009bdf;
      }

      .cls-4 {
        fill: #ffe600;
      }

      .cls-5 {
        fill: #001870;
      }
    </style>
  </defs>
  <g id="Layer_1-2" data-name="Layer 1">
    <g>
      <rect class="cls-1" width="512" height="512"/>
      <g>
        <path class="cls-3" d="M391.15,255.89c0,70.85-.21,141.69.18,212.54.08,13.88-5,24.29-15.74,32.16-4.74,3.47-10.64,4.19-16.55,4.19-38.53-.05-77.06-.02-115.59-.02-29.93,0-59.88-.63-89.78.24-17.95.52-33.91-16.82-32.89-32.26.11-1.65-.02-3.31-.02-4.96,0-141.53.04-283.05-.1-424.58,0-8.19,1.21-15.89,5.59-22.67,5.78-8.97,14.51-13.32,25.11-13.43,16.2-.16,32.41-.04,48.61-.04,52.58,0,105.17.01,157.75-.02,4.16,0,8.24.27,12.23,1.55,12.34,3.96,19.14,14.2,20.97,26.85.38,2.6.22,5.29.22,7.93,0,70.85,0,141.69,0,212.54Z"/>
        <path class="cls-4" d="M371.31,257.84c0,45.86-.06,91.71.1,137.57.01,4.05-.83,5.14-5.03,5.14-73.59-.15-147.18-.15-220.78,0-4.11,0-5.09-.94-5.09-5.08.13-91.88.13-183.76.02-275.63,0-3.74.74-4.94,4.77-4.94,73.76.14,147.51.13,221.27,0,3.93,0,4.84,1.04,4.82,4.88-.14,46.02-.09,92.04-.09,138.06Z"/>
        <path class="cls-4" d="M255.55,94.13c-36.72,0-73.43-.07-110.15.09-3.96.02-4.93-1.08-4.88-4.94.22-16.06.07-32.12.1-48.18.02-9.43,3.83-13.2,13.29-13.2,67.98,0,135.95,0,203.93,0,9.74,0,13.44,3.72,13.46,13.53.03,16.06-.13,32.12.11,48.18.06,3.82-1.07,4.62-4.71,4.61-37.05-.14-74.09-.08-111.14-.08Z"/>
        <path class="cls-5" d="M256.22,421.3c36.87,0,73.75.06,110.62-.1,3.75-.02,4.62.92,4.56,4.6-.24,14.4-.08,28.8-.1,43.2-.02,11.38-3.48,14.88-14.66,14.88-67.3,0-134.6,0-201.9,0-10.32,0-14.08-3.65-14.12-13.91-.06-14.73.13-29.47-.12-44.19-.06-3.75.91-4.59,4.59-4.57,37.04.15,74.08.09,111.12.09Z"/>
        <path class="cls-5" d="M248.97,345.99c-16.59-1.73-31.9-7.32-43.62-19.17-23.27-23.52-31.25-51.64-22.17-84.04,1.8-6.41,4.31-12.43,7.82-18.06,3.66-5.87,8.28-7.66,13.14-5,4.69,2.56,6.61,9.49,4.03,14.83-3.59,7.43-7.07,14.87-8.11,23.2-1.9,15.14,1.01,29.05,9.16,42.15,7.89,12.68,19.35,19.58,33.11,24.13,7.11,2.35,14.02,2.76,21.2,1.92,20.45-2.4,42.45-22.7,47-42.84,4.65-20.61,1.46-39.53-12.36-55.78-10.93-12.85-24.84-20.35-42.22-19.96-.89.02-1.97-.35-2.88.89,3.49,2.92,8.53,4.3,9.53,9.75.79,4.25.39,7.94-3.14,10.74-3.62,2.87-7.64,3.06-11.58.82-9.7-5.51-18.83-11.92-27.74-18.61-4.25-3.19-4.68-7.76-2.19-12.91,3.24-6.71,7.57-12.75,11.35-19.13,1.67-2.82,3.14-5.77,4.85-8.58,3.36-5.5,9-7.27,13.9-4.5,4.71,2.67,6.44,8.99,3.8,14.37-1,2.04-2.3,3.93-3.83,6.51,10.09-.66,19.69-.57,28.73,2.58,30.6,10.67,49.21,32.2,54.45,64.11,4.31,26.24-2.82,49.53-21.02,69.52-12.6,13.84-28.35,20.31-46.22,23.02-4.98,1.38-9.97,1.3-14.97.05Z"/>
        <path class="cls-2" d="M248.97,345.99c4.99-.02,9.98-.03,14.97-.05-3.03,2.87-12.03,2.9-14.97.05Z"/>
        <path class="cls-5" d="M236.89,60.42c.13,7.15-4.89,12.74-11.54,12.86-6.62.11-11.74-5.3-11.86-12.53-.1-6.25,5.25-11.75,11.53-11.85,6.26-.1,11.75,5.23,11.86,11.53Z"/>
        <path class="cls-5" d="M267.65,60.63c-.02,7.2-5.11,12.68-11.74,12.65-6.65-.03-11.69-5.55-11.65-12.74.03-6.28,5.48-11.67,11.74-11.65,6.28.03,11.67,5.45,11.65,11.73Z"/>
        <path class="cls-5" d="M286.65,48.89c6.27-.04,11.71,5.34,11.76,11.62.06,7.19-4.98,12.71-11.63,12.76-6.63.05-11.72-5.42-11.76-12.63-.04-6.26,5.35-11.71,11.63-11.75Z"/>
        <path class="cls-4" d="M256.46,442.13c6.77,0,13.53-.06,20.3.02,6.67.08,11.06,4.21,10.92,10.14-.15,6.67-4.09,10.64-10.94,10.68-13.86.08-27.72.08-41.58,0-6.82-.04-10.79-4.06-10.92-10.71-.12-5.93,4.26-10.04,10.95-10.11,7.09-.08,14.19-.02,21.29-.02Z"/>
      </g>
    </g>
  </g>
</svg>